<mxfile host="app.diagrams.net" modified="2021-06-26T13:41:29.098Z" agent="5.0 (Macintosh; Intel Mac OS X 10_15_7) AppleWebKit/537.36 (KHTML, like Gecko) Chrome/91.0.4472.114 Safari/537.36" etag="YvvBy3ZKeLcFFfXaCtqs" version="14.8.0" type="github">
  <diagram id="nN4wQTtuESnlvM1exMuP" name="Page-1">
    <mxGraphModel dx="1298" dy="850" grid="1" gridSize="10" guides="1" tooltips="1" connect="1" arrows="1" fold="1" page="1" pageScale="1" pageWidth="827" pageHeight="1169" math="0" shadow="0">
      <root>
        <mxCell id="0" />
        <mxCell id="1" parent="0" />
        <mxCell id="JnfK7ZO0zfgUYSri5Nty-7" style="edgeStyle=orthogonalEdgeStyle;rounded=0;orthogonalLoop=1;jettySize=auto;html=1;exitX=0.5;exitY=0;exitDx=0;exitDy=0;entryX=0.5;entryY=1;entryDx=0;entryDy=0;" edge="1" parent="1" source="JnfK7ZO0zfgUYSri5Nty-1" target="JnfK7ZO0zfgUYSri5Nty-2">
          <mxGeometry relative="1" as="geometry" />
        </mxCell>
        <mxCell id="JnfK7ZO0zfgUYSri5Nty-8" style="edgeStyle=orthogonalEdgeStyle;rounded=0;orthogonalLoop=1;jettySize=auto;html=1;entryX=0;entryY=0.5;entryDx=0;entryDy=0;" edge="1" parent="1" source="JnfK7ZO0zfgUYSri5Nty-1" target="JnfK7ZO0zfgUYSri5Nty-4">
          <mxGeometry relative="1" as="geometry" />
        </mxCell>
        <mxCell id="JnfK7ZO0zfgUYSri5Nty-9" style="edgeStyle=orthogonalEdgeStyle;rounded=0;orthogonalLoop=1;jettySize=auto;html=1;exitX=0.5;exitY=1;exitDx=0;exitDy=0;entryX=0.5;entryY=0;entryDx=0;entryDy=0;" edge="1" parent="1" source="JnfK7ZO0zfgUYSri5Nty-1" target="JnfK7ZO0zfgUYSri5Nty-3">
          <mxGeometry relative="1" as="geometry" />
        </mxCell>
        <mxCell id="JnfK7ZO0zfgUYSri5Nty-10" style="edgeStyle=orthogonalEdgeStyle;rounded=0;orthogonalLoop=1;jettySize=auto;html=1;" edge="1" parent="1" source="JnfK7ZO0zfgUYSri5Nty-1" target="JnfK7ZO0zfgUYSri5Nty-5">
          <mxGeometry relative="1" as="geometry" />
        </mxCell>
        <mxCell id="JnfK7ZO0zfgUYSri5Nty-1" value="&lt;b&gt;Child&lt;br&gt;Process&lt;/b&gt;" style="ellipse;whiteSpace=wrap;html=1;aspect=fixed;fillColor=#0050ef;strokeColor=#001DBC;fontColor=#ffffff;" vertex="1" parent="1">
          <mxGeometry x="370" y="120" width="120" height="120" as="geometry" />
        </mxCell>
        <mxCell id="JnfK7ZO0zfgUYSri5Nty-2" value="&lt;b&gt;spawn()&lt;/b&gt;" style="ellipse;whiteSpace=wrap;html=1;aspect=fixed;fillColor=#d5e8d4;strokeColor=#82b366;" vertex="1" parent="1">
          <mxGeometry x="390" width="80" height="80" as="geometry" />
        </mxCell>
        <mxCell id="JnfK7ZO0zfgUYSri5Nty-3" value="&lt;b&gt;fork()&lt;/b&gt;" style="ellipse;whiteSpace=wrap;html=1;aspect=fixed;fillColor=#1ba1e2;strokeColor=#006EAF;fontColor=#ffffff;" vertex="1" parent="1">
          <mxGeometry x="390" y="280" width="80" height="80" as="geometry" />
        </mxCell>
        <mxCell id="JnfK7ZO0zfgUYSri5Nty-4" value="&lt;b&gt;execFile()&lt;/b&gt;" style="ellipse;whiteSpace=wrap;html=1;aspect=fixed;fillColor=#008a00;strokeColor=#005700;fontColor=#ffffff;" vertex="1" parent="1">
          <mxGeometry x="530" y="140" width="80" height="80" as="geometry" />
        </mxCell>
        <mxCell id="JnfK7ZO0zfgUYSri5Nty-5" value="&lt;b&gt;exec()&lt;/b&gt;" style="ellipse;whiteSpace=wrap;html=1;aspect=fixed;fillColor=#60a917;strokeColor=#2D7600;fontColor=#ffffff;" vertex="1" parent="1">
          <mxGeometry x="250" y="140" width="80" height="80" as="geometry" />
        </mxCell>
      </root>
    </mxGraphModel>
  </diagram>
</mxfile>
